<?xml version="1.0" encoding="UTF-8" standalone="no"?>
<!-- Created with Inkscape (http://www.inkscape.org/) -->

<svg
   xmlns:dc="http://purl.org/dc/elements/1.1/"
   xmlns:cc="http://creativecommons.org/ns#"
   xmlns:rdf="http://www.w3.org/1999/02/22-rdf-syntax-ns#"
   xmlns:svg="http://www.w3.org/2000/svg"
   xmlns="http://www.w3.org/2000/svg"
   xmlns:sodipodi="http://sodipodi.sourceforge.net/DTD/sodipodi-0.dtd"
   xmlns:inkscape="http://www.inkscape.org/namespaces/inkscape"
   id="svg3355"
   version="1.1"
   inkscape:version="0.91 r13725"
   xml:space="preserve"
   width="595.41028"
   height="100.98475"
   viewBox="0 0 595.41028 100.98475"
   sodipodi:docname="cg-logo.svg"><metadata
     id="metadata3361"><rdf:RDF><cc:Work
         rdf:about=""><dc:format>image/svg+xml</dc:format><dc:type
           rdf:resource="http://purl.org/dc/dcmitype/StillImage" /><dc:title></dc:title></cc:Work></rdf:RDF></metadata><defs
     id="defs3359" /><sodipodi:namedview
     pagecolor="#ffffff"
     bordercolor="#666666"
     borderopacity="1"
     objecttolerance="10"
     gridtolerance="10"
     guidetolerance="10"
     inkscape:pageopacity="0"
     inkscape:pageshadow="2"
     inkscape:window-width="1920"
     inkscape:window-height="1151"
     id="namedview3357"
     showgrid="false"
     fit-margin-top="0"
     fit-margin-left="0"
     fit-margin-right="0"
     fit-margin-bottom="0"
     inkscape:zoom="1.960758"
     inkscape:cx="208.45654"
     inkscape:cy="0.51033253"
     inkscape:window-x="0"
     inkscape:window-y="1"
     inkscape:window-maximized="1"
     inkscape:current-layer="g3363" /><g
     id="g3363"
     inkscape:groupmode="layer"
     inkscape:label="ink_ext_XXXXXX"
     transform="matrix(1.25,0,0,-1.25,-0.39125875,283.00622)"><g
       id="g3365"
       transform="matrix(0.1,0,0,0.1,-59.160793,72.624974)"><path
         d="m 2437.15,1443.17 c -0.66,0.58 -1.56,0.8 -2.42,0.6 l -158.9,-36.92 c -0.3,-0.07 -0.58,-0.19 -0.84,-0.35 l -69.51,-43.72 -152.25,16.58 c -0.54,0.03 -1.07,-0.1 -1.54,-0.37 l -47.11,-27.2 -37.62,88.87 c -0.38,0.97 -1.27,1.63 -2.3,1.72 l -144.05,12.97 c -0.77,0.08 -1.51,-0.18 -2.07,-0.68 L 1714.85,1362 c -0.53,-0.47 -0.86,-1.13 -0.91,-1.84 l -7.11,-97.4 c -0.06,-0.74 0.19,-1.47 0.68,-2.02 l 66.38,-74.75 69.81,-89.32 -107.49,-44.7 c -1.24,-0.52 -1.93,-1.86 -1.61,-3.17 l 16.07,-66.851 -81.31,-33.89 -25.65,6.132 c -0.74,0.168 -1.51,0.039 -2.14,-0.371 -0.63,-0.422 -1.06,-1.07 -1.19,-1.808 l -16.62,-92.153 c -0.21,-1.16 0.34,-2.32 1.37,-2.879 l 93.2,-51.3 21.84,-73.801 c 0.29,-0.957 1.08,-1.688 2.06,-1.899 0.19,-0.039 0.38,-0.058 0.57,-0.058 0.79,0 1.55,0.348 2.08,0.957 l 102.68,120.383 322.97,166.888 166.21,74.88 c 1.11,0.5 1.75,1.66 1.59,2.86 l -10.36,75.4 104.04,-54.07 -15.88,-47.17 c -0.32,-0.96 -0.09,-2.03 0.62,-2.76 0.7,-0.74 1.76,-1.02 2.73,-0.74 l 99.73,28.8 c 1.08,0.31 1.85,1.24 1.96,2.35 0.91,8.84 22.18,216.75 22.18,233.97 0,17.63 -88.47,95.97 -106.2,111.5"
         style="fill:#568cba;fill-opacity:1;fill-rule:nonzero;stroke:none"
         id="path3367"
         inkscape:connector-curvature="0" /><path
         d="m 2564.69,1226.04 0,101.52 c 0,14.4 -2.88,30.24 -12.96,43.92 -5.76,8.64 -23.76,26.64 -34.56,34.56 -14.4,10.08 -34.56,15.84 -52.56,15.84 l -66.24,0 c -18,0 -38.16,-5.76 -52.56,-15.84 -10.8,-7.92 -28.8,-26.64 -34.56,-34.56 -9.36,-12.96 -13.68,-28.08 -13.68,-43.92 l 0,-129.6 c 0,-15.84 4.32,-31.68 13.68,-44.64 5.76,-7.92 23.76,-26.64 34.56,-34.56 14.4,-10.08 34.56,-15.12 52.56,-15.12 l 67.68,0 c 17.28,0 38.16,7.2 51.84,16.56 11.52,7.92 38.88,36 46.08,53.28 l -66.96,20.16 c 0,0 -1.44,-2.16 -2.16,-2.88 -4.32,-5.04 -19.44,-18.72 -26.64,-18.72 l -69.84,0 c -7.2,0 -21.6,12.24 -28.08,23.04 0,0 -0.72,1.44 -0.72,3.6 l 0,27.36 195.12,0 z m -72,67.68 -123.12,0 0,32.4 c 0,0 0,2.88 0.72,4.32 6.48,10.8 20.88,23.04 28.08,23.04 l 65.52,0 c 1.44,0 2.88,0 4.32,-0.72 8.64,-5.04 19.44,-15.12 23.76,-22.32 0.72,-0.72 0.72,-4.32 0.72,-4.32 l 0,-32.4 z m 382.96,-186.48 0,68.4 -151.2,0 144,183.6 0,59.04 -246.24,0 0,-68.4 149.04,0 -143.28,-184.32 0,-58.32 247.68,0 z m 495.21,311.04 -75.6,0 -59.04,-200.88 -55.44,200.88 -75.6,0 -56.88,-200.88 -57.6,200.88 -76.32,0 95.04,-311.04 73.44,0 59.76,195.12 58.32,-195.12 73.44,0 96.48,311.04 z m 127.29,38.88 0,77.04 -77.04,0 0,-77.04 77.04,0 z m -2.16,-349.92 0,311.04 -72,0 0,-311.04 72,0 z m 167.03,242.64 89.28,0 0,68.4 -89.28,0 0,119.52 -72,0 0,-119.52 -48.24,0 0,-68.4 48.24,0 0,-146.88 c 0,-15.84 4.32,-31.68 13.68,-45.36 5.76,-7.92 23.04,-27.36 34.56,-35.28 14.4,-10.08 33.84,-15.12 51.84,-15.12 l 60.48,0 0,68.4 -59.76,0 c -10.08,0 -23.76,15.84 -28.08,23.76 -0.72,1.44 -0.72,4.32 -0.72,4.32 l 0,146.16 z m 209.37,-158.4 -2.16,2.88 -66.96,-20.16 c 7.2,-17.28 34.56,-45.36 46.08,-53.28 13.68,-9.36 34.56,-17.28 51.84,-17.28 l 77.76,0 c 18,0 36.72,5.76 51.12,15.84 11.52,7.92 26.64,24.48 32.4,33.12 9.36,12.96 13.68,28.08 13.68,43.92 l 0,20.16 c 0,47.52 -32.4,69.84 -71.28,74.16 -39.6,4.32 -94.32,8.64 -113.04,10.8 -7.2,0.72 -10.8,7.2 -10.8,9.36 l 0,17.28 c 0,5.76 0.72,7.2 0.72,7.2 4.32,7.92 13.68,15.12 16.56,16.56 2.88,1.44 9.36,1.44 9.36,1.44 l 69.12,0 c 7.2,0 22.32,-13.68 26.64,-18.72 1.44,-1.44 2.16,-2.88 2.16,-2.88 l 67.68,20.16 c -7.2,17.28 -35.28,45.36 -46.8,53.28 -13.68,9.36 -34.56,16.56 -51.84,16.56 l -69.12,0 c -36,0 -63.36,-19.44 -83.52,-48.24 -9.36,-12.96 -12.96,-28.08 -12.96,-43.92 l 0,-21.6 c 0,-46.08 29.52,-70.56 67.68,-73.44 41.04,-3.6 92.88,-7.2 118.08,-9.36 7.92,-0.72 9.36,-6.48 9.36,-10.08 l 0,-17.28 c 0,-10.08 -17.28,-25.92 -25.92,-25.92 l -79.2,0 c -7.2,0.72 -22.32,14.4 -26.64,19.44 z m 326.49,134.64 c 0,0 0,3.6 0.72,5.04 5.04,8.64 15.12,16.56 23.76,21.6 1.44,0.72 2.88,0.72 4.32,0.72 l 67.68,0 c 7.2,0 22.32,-15.12 26.64,-20.16 1.44,-1.44 2.16,-2.88 2.16,-2.88 l 67.68,20.16 c -7.2,17.28 -35.28,45.36 -46.8,53.28 -13.68,9.36 -34.56,18 -51.84,18 l -66.24,0 c -18,0 -38.16,-5.76 -52.56,-15.84 -10.8,-7.92 -28.8,-25.92 -34.56,-34.56 -10.08,-13.68 -12.96,-29.52 -12.96,-43.92 l 0,-129.6 c 0,-14.4 2.88,-30.24 12.96,-43.92 5.76,-8.64 23.76,-27.36 34.56,-35.28 14.4,-10.08 34.56,-15.12 52.56,-15.12 l 69.12,0 c 17.28,0 38.16,7.2 51.84,16.56 11.52,7.92 38.88,36 46.08,53.28 l -66.96,20.16 c -1.44,-2.16 -2.16,-2.88 -2.16,-2.88 -4.32,-5.04 -19.44,-18.72 -26.64,-18.72 l -70.56,0 c -1.44,0 -4.32,1.44 -4.32,1.44 -8.64,5.04 -18,12.24 -23.04,20.88 -1.44,2.16 -1.44,4.32 -1.44,4.32 l 0,127.44 z m 439.23,-218.88 72,0 0,219.6 c 0,15.84 -3.6,30.24 -12.96,43.92 -5.76,7.92 -23.04,27.36 -34.56,35.28 -13.68,10.08 -34.56,15.84 -51.84,15.84 l -51.84,0 c -15.12,0 -30.24,-8.64 -42.48,-17.28 l 0,133.2 -72,0 0,-430.56 72,0 0,213.84 c 8.64,10.8 34.56,32.4 43.92,32.4 l 49.68,0 c 2.16,0 3.6,0 4.32,-0.72 7.92,-5.04 18,-15.12 23.04,-23.76 0,0 0.72,-1.44 0.72,-3.6 l 0,-218.16 z m 402.11,118.8 0,101.52 c 0,14.4 -2.88,30.24 -12.96,43.92 -5.76,8.64 -23.76,26.64 -34.56,34.56 -14.4,10.08 -34.56,15.84 -52.56,15.84 l -66.24,0 c -18,0 -38.16,-5.76 -52.56,-15.84 -10.8,-7.92 -28.8,-26.64 -34.56,-34.56 -9.36,-12.96 -13.68,-28.08 -13.68,-43.92 l 0,-129.6 c 0,-15.84 4.32,-31.68 13.68,-44.64 5.76,-7.92 23.76,-26.64 34.56,-34.56 14.4,-10.08 34.56,-15.12 52.56,-15.12 l 67.68,0 c 17.28,0 38.16,7.2 51.84,16.56 11.52,7.92 38.88,36 46.08,53.28 l -66.96,20.16 c 0,0 -1.44,-2.16 -2.16,-2.88 -4.32,-5.04 -19.44,-18.72 -26.64,-18.72 l -69.84,0 c -7.2,0 -21.6,12.24 -28.08,23.04 0,0 -0.72,1.44 -0.72,3.6 l 0,27.36 195.12,0 z m -72,67.68 -123.12,0 0,32.4 c 0,0 0,2.88 0.72,4.32 6.48,10.8 20.88,23.04 28.08,23.04 l 65.52,0 c 1.44,0 2.88,0 4.32,-0.72 8.64,-5.04 19.44,-15.12 23.76,-22.32 0.72,-0.72 0.72,-4.32 0.72,-4.32 l 0,-32.4 z m 389.8,56.88 c -7.2,17.28 -35.28,45.36 -46.8,53.28 -13.68,9.36 -34.56,18 -51.84,18 l -43.2,0 c -16.56,0 -33.12,-11.52 -46.08,-20.88 l -2.88,17.28 -70.56,0 5.76,-64.08 0,-246.96 72,0 0,215.28 c 8.64,10.8 27.36,30.96 43.92,30.96 l 43.2,0 c 7.2,0.72 22.32,-15.12 26.64,-20.16 1.44,-1.44 2.16,-2.16 2.16,-2.88 l 67.68,20.16"
         style="fill:#fbc834;fill-opacity:1;fill-rule:nonzero;stroke:none"
         id="path3369"
         inkscape:connector-curvature="0" /><path
         d="m 666.738,1326.12 c 0,0 0,3.6 0.723,5.04 5.039,8.64 15.117,16.56 23.758,21.6 1.441,0.72 2.879,0.72 4.32,0.72 l 67.68,0 c 7.199,0 22.32,-15.12 26.64,-20.16 1.442,-1.44 2.161,-2.88 2.161,-2.88 l 67.679,20.16 c -7.199,17.28 -35.281,45.36 -46.801,53.28 -13.679,9.36 -34.558,18 -51.839,18 l -66.239,0 c -18,0 -38.16,-5.76 -52.562,-15.84 -10.797,-7.92 -28.797,-25.92 -34.559,-34.56 -10.082,-13.68 -12.961,-29.52 -12.961,-43.92 l 0,-129.6 c 0,-14.4 2.879,-30.24 12.961,-43.92 5.762,-8.64 23.762,-27.36 34.559,-35.28 14.402,-10.08 34.562,-15.12 52.562,-15.12 l 69.118,0 c 17.281,0 38.16,7.2 51.839,16.56 11.524,7.92 38.883,36 46.082,53.28 l -66.961,20.16 c -1.437,-2.16 -2.16,-2.88 -2.16,-2.88 -4.32,-5.04 -19.437,-18.72 -26.64,-18.72 l -70.559,0 c -1.441,0 -4.32,1.44 -4.32,1.44 -8.641,5.04 -18,12.24 -23.039,20.88 -1.442,2.16 -1.442,4.32 -1.442,4.32 l 0,127.44 z m 775.502,-128.16 0,129.6 c 0,14.4 -2.16,30.24 -12.24,43.92 -5.76,8.64 -23.76,26.64 -34.56,34.56 -14.4,10.08 -34.56,15.84 -52.56,15.84 l -67.68,0 c -18,0 -37.44,-5.76 -51.84,-15.84 -10.8,-7.92 -29.52,-25.92 -35.28,-34.56 -10.08,-13.68 -12.24,-29.52 -12.24,-43.92 l 0,-129.6 c 0,-14.4 2.16,-30.24 12.24,-43.92 5.76,-8.64 24.48,-27.36 35.28,-35.28 14.4,-10.08 33.84,-15.12 51.84,-15.12 l 67.68,0 c 18,0 38.16,5.04 52.56,15.12 10.8,7.92 28.8,26.64 34.56,35.28 10.08,13.68 12.24,29.52 12.24,43.92 z m -194.4,127.44 c 0,0 0,2.88 0.72,4.32 5.04,8.64 15.12,18 23.76,23.04 1.44,0.72 2.16,0.72 3.6,0.72 l 66.24,0 c 1.44,0 2.16,0 3.6,-0.72 8.64,-5.04 19.44,-15.84 23.76,-23.04 0.72,-2.16 0.72,-3.6 0.72,-4.32 l 0,-131.04 c -0.72,-5.76 -17.28,-17.28 -23.76,-20.88 -1.44,-0.72 -2.88,-1.44 -4.32,-1.44 l -66.24,0 c -2.88,0 -4.32,0.72 -4.32,0.72 -8.64,5.04 -23.76,15.84 -23.76,21.6 l 0,131.04 z m 680.73,92.88 -75.6,0 -59.04,-200.88 -55.44,200.88 -75.6,0 -56.88,-200.88 -57.6,200.88 -76.32,0 95.04,-311.04 73.44,0 59.76,195.12 58.32,-195.12 73.44,0 96.48,311.04"
         style="fill:#c60a8d;fill-opacity:1;fill-rule:nonzero;stroke:none"
         id="path3371"
         inkscape:connector-curvature="0" /><path
         d="m 2232.31,1302.52 0,235.28 -72,0 0,-132.48 c -12.24,8.64 -27.36,16.56 -42.48,16.56 l -56.01,0 c -18,0 -37.44,-5.04 -51.84,-15.12 -11.52,-7.92 -28.8,-27.36 -34.56,-35.28 -9.36,-12.96 -12.96,-28.8 -12.96,-44.64 l 0,-89.8 72,0 0,88.36 c 0,2.16 0.72,3.6 0.72,3.6 5.04,8.64 15.12,18.72 23.04,23.76 0.72,0.72 2.16,0.72 4.32,0.72 l 53.13,0 c 8.64,0 35.28,-20.88 44.64,-31.68 l 0,-19.28 72,0"
         style="fill:#c60a8d;fill-opacity:1;fill-rule:nonzero;stroke:none"
         id="path3373"
         inkscape:connector-curvature="0" /><path
         d="m 2232.44,1072.7 0,202.22 -71.99,0 0,-70.78 c -9.36,-10.8 -26.64,-25.92 -39.6,-32.4 -1.44,-0.72 -5.04,-0.72 -5.04,-0.72 l -52.56,0 c -0.72,0 -2.88,0 -4.32,0.72 -7.92,5.04 -18.3,15.12 -23.34,23.76 -0.72,1.44 -0.72,4.32 -0.72,4.32 l -0.27,9.44 -72.14,0 0,-10.88 c 0,-15.12 2.88,-30.96 12.96,-44.64 5.75,-7.92 23.03,-27.36 34.55,-35.28 14.4,-10.08 35.28,-15.84 52.56,-15.84 l 55.44,0 c 15.12,0 30.24,8.64 42.48,17.28 l 0,-45.76 c 0,-1.44 0,-3.6 0,-5.04 -0.72,-5.76 -17.28,-18.72 -23.76,-22.32 -1.44,-0.72 -2.88,-1.44 -4.32,-1.44 l -72.83,0 c -7.2,0 -22.32,14.4 -26.64,19.44 -1.44,1.44 -2.16,2.88 -2.16,2.88 l -66.96,-20.16 c 7.2,-17.28 34.56,-45.36 46.08,-53.281 13.68,-9.36 34.56,-17.278 51.84,-17.278 l 71.39,0 c 17.28,0 38.16,5.758 52.56,15.84 10.8,7.919 28.79,25.919 34.56,34.559 10.07,13.68 12.23,30.24 12.23,45.36 z m -0.58,277.26 0.58,0 0,0.75 c -0.17,-0.26 -0.4,-0.49 -0.58,-0.75"
         style="fill:#fbc834;fill-opacity:1;fill-rule:nonzero;stroke:none"
         id="path3375"
         inkscape:connector-curvature="0" /><path
         d="m 1156.89,1379.5 c -9.68,10.67 -20.15,20.24 -26.14,24.36 -13.68,9.36 -34.56,18 -51.84,18 l -43.2,0 c -16.56,0 -33.12,-11.52 -46.081,-20.88 l -2.883,17.28 -70.558,0 5.757,-64.08 0,-246.96 72.004,0 0,215.28 c 8.641,10.8 27.361,30.96 43.921,30.96 l 43.2,0 c 4.03,0.4 10.54,-4.39 16.26,-9.57"
         style="fill:#c60a8d;fill-opacity:1;fill-rule:nonzero;stroke:none"
         id="path3377"
         inkscape:connector-curvature="0" /></g></g></svg>