<?xml version="1.0" encoding="UTF-8" standalone="no"?>
<svg
   xmlns:dc="http://purl.org/dc/elements/1.1/"
   xmlns:cc="http://creativecommons.org/ns#"
   xmlns:rdf="http://www.w3.org/1999/02/22-rdf-syntax-ns#"
   xmlns:svg="http://www.w3.org/2000/svg"
   xmlns="http://www.w3.org/2000/svg"
   viewBox="0 0 270.40804 102.76588"
   height="102.76588"
   width="270.40805"
   xml:space="preserve"
   version="1.1"
   id="svg4228"><metadata
     id="metadata4234"><rdf:RDF><cc:Work
         rdf:about=""><dc:format>image/svg+xml</dc:format><dc:type
           rdf:resource="http://purl.org/dc/dcmitype/StillImage" /><dc:title></dc:title></cc:Work></rdf:RDF></metadata><defs
     id="defs4232"><clipPath
       id="clipPath4242"
       clipPathUnits="userSpaceOnUse"><path
         id="path4244"
         d="m 0,0 841.89,0 0,595.276 L 0,595.276 0,0 Z" /></clipPath></defs><g
     transform="matrix(1.25,0,0,-1.25,-391.40821,422.9995)"
     id="g4236"><g
       id="g4238"><g
         clip-path="url(#clipPath4242)"
         id="g4240"><g
           transform="translate(394.47,327.5109)"
           id="g4246"><path
             id="path4248"
             style="fill:#568cba;fill-opacity:1;fill-rule:nonzero;stroke:none"
             d="m 0,0 c -0.066,0.058 -0.157,0.08 -0.242,0.061 l -15.89,-3.692 c -0.03,-0.007 -0.058,-0.019 -0.084,-0.035 l -6.951,-4.373 -15.225,1.658 c -0.054,0.004 -0.107,-0.009 -0.154,-0.036 l -4.711,-2.721 -3.762,8.887 c -0.038,0.097 -0.127,0.164 -0.23,0.173 L -61.654,1.219 C -61.731,1.226 -61.805,1.201 -61.861,1.15 L -72.23,-8.117 c -0.053,-0.047 -0.086,-0.113 -0.091,-0.184 l -0.711,-9.74 c -0.006,-0.074 0.019,-0.146 0.068,-0.202 l 6.637,-7.474 6.982,-8.933 -10.749,-4.47 c -0.124,-0.051 -0.193,-0.185 -0.161,-0.316 l 1.607,-6.685 -8.131,-3.389 -2.565,0.612 c -0.074,0.017 -0.151,0.004 -0.214,-0.037 -0.063,-0.041 -0.106,-0.106 -0.119,-0.18 l -1.662,-9.216 c -0.021,-0.116 0.034,-0.231 0.137,-0.288 l 9.32,-5.13 2.184,-7.38 c 0.029,-0.096 0.108,-0.169 0.206,-0.19 0.019,-0.004 0.038,-0.005 0.057,-0.005 0.079,0 0.155,0.034 0.208,0.096 l 10.268,12.037 32.297,16.689 16.621,7.488 c 0.111,0.05 0.175,0.167 0.159,0.287 l -1.036,7.54 10.404,-5.408 -1.588,-4.717 c -0.032,-0.096 -0.009,-0.203 0.062,-0.276 0.07,-0.074 0.175,-0.102 0.273,-0.074 l 9.973,2.88 c 0.107,0.031 0.185,0.124 0.196,0.235 0.091,0.884 2.218,21.676 2.218,23.398 C 10.62,-9.386 1.773,-1.553 0,0" /></g><g
           transform="translate(372.2019,285.8961)"
           id="g4250"><path
             id="path4252"
             style="fill:#fbc834;fill-opacity:1;fill-rule:nonzero;stroke:none"
             d="m 0,0 c 1.008,1.368 1.224,3.024 1.224,4.536 l 0,27.801 c -1.022,-1.504 -2.5,-2.797 -4.351,-3.746 l -2.849,-1.475 0,-9.436 C -6.912,16.6 -8.64,15.088 -9.936,14.44 -10.08,14.368 -10.44,14.368 -10.44,14.368 l -5.255,0 c -0.072,0 -0.288,0 -0.432,0.072 -0.792,0.504 -1.83,1.512 -2.334,2.376 -0.072,0.144 -0.072,0.432 -0.072,0.432 l -0.028,0.958 -7.214,0.017 0,-1.119 c 0,-1.512 0.288,-3.096 1.296,-4.464 0.576,-0.792 2.304,-2.736 3.456,-3.528 1.44,-1.008 3.528,-1.584 5.256,-1.584 l 5.543,0 c 1.512,0 3.024,0.864 4.248,1.728 l 0,-4.576 0,-0.504 C -6.048,3.6 -7.704,2.304 -8.352,1.944 -8.496,1.872 -8.64,1.8 -8.784,1.8 l -7.283,0 c -0.72,0 -2.232,1.44 -2.663,1.944 -0.144,0.144 -0.216,0.288 -0.216,0.288 l -6.696,-2.016 c 0.72,-1.728 3.456,-4.536 4.608,-5.328 1.368,-0.936 3.455,-1.728 5.183,-1.728 l 7.139,0 c 1.728,0 3.816,0.576 5.256,1.584 1.08,0.792 2.88,2.592 3.456,3.456" /></g><g
           transform="translate(353.6552,306.7756)"
           id="g4254"><path
             id="path4256"
             style="fill:#c60a8d;fill-opacity:1;fill-rule:nonzero;stroke:none"
             d="M 0,0 0,1.817 C 0,2.23 0.344,2.849 1.101,3.263 l 13.562,7.021 c 2.684,1.377 5.094,3.924 5.094,7.435 l 0,4.405 c 0,1.446 -0.413,2.96 -1.24,4.199 -0.619,0.895 -2.753,3.029 -3.786,3.718 -1.308,0.963 -3.166,1.583 -4.818,1.583 l -7.068,0 c -3.992,0 -7.021,-3.304 -8.88,-5.714 -0.413,-0.55 -0.665,-1.583 -1.216,-2.753 l 6.884,-2.065 c 0.62,1.652 2.111,3.029 3.075,3.579 0.137,0.069 0.413,0.069 0.413,0.069 l 6.723,0 c 0.688,0 1.996,-1.239 2.616,-2.272 0,0 0.069,-0.206 0.069,-0.344 l 0,-4.199 c 0,-0.619 -0.345,-1.101 -0.895,-1.377 L -2.065,9.458 C -4.956,7.944 -7.228,5.534 -7.228,2.092 l 0,-2.092" /></g><g
           transform="translate(529.453,318.1683)"
           id="g4258"><path
             id="path4260"
             style="fill:#fbc834;fill-opacity:1;fill-rule:nonzero;stroke:none"
             d="m 0,0 c -0.72,1.728 -3.528,4.536 -4.68,5.328 -1.368,0.936 -3.456,1.8 -5.184,1.8 l -4.32,0 c -1.656,0 -3.312,-1.152 -4.608,-2.088 l -0.288,1.728 -7.056,0 0.576,-6.408 0,-24.696 7.2,0 0,21.528 c 0.864,1.08 2.736,3.096 4.392,3.096 l 4.32,0 c 0.72,0.072 2.232,-1.512 2.664,-2.016 0.144,-0.144 0.216,-0.216 0.216,-0.288 L 0,0 Z m -51.292,-12.456 19.512,0 0,10.152 c 0,1.44 -0.288,3.024 -1.296,4.392 -0.576,0.864 -2.376,2.664 -3.456,3.456 -1.44,1.008 -3.456,1.584 -5.256,1.584 l -6.624,0 c -1.8,0 -3.816,-0.576 -5.256,-1.584 -1.08,-0.792 -2.88,-2.664 -3.456,-3.456 -0.936,-1.296 -1.368,-2.808 -1.368,-4.392 l 0,-12.96 c 0,-1.584 0.432,-3.168 1.368,-4.464 0.576,-0.792 2.376,-2.664 3.456,-3.456 1.44,-1.008 3.456,-1.512 5.256,-1.512 l 6.768,0 c 1.728,0 3.816,0.72 5.184,1.656 1.152,0.792 3.888,3.6 4.608,5.328 l -6.696,2.016 c 0,0 -0.144,-0.216 -0.216,-0.288 -0.432,-0.504 -1.944,-1.872 -2.664,-1.872 l -6.984,0 c -0.72,0 -2.16,1.224 -2.808,2.304 0,0 -0.072,0.144 -0.072,0.36 l 0,2.736 z m 0,6.768 0,3.24 c 0,0 0,0.288 0.072,0.432 0.648,1.08 2.088,2.304 2.808,2.304 l 6.552,0 c 0.144,0 0.288,0 0.432,-0.072 0.864,-0.504 1.944,-1.512 2.376,-2.232 0.072,-0.072 0.072,-0.432 0.072,-0.432 l 0,-3.24 -12.312,0 z m -20.699,-18.648 7.2,0 0,21.96 c 0,1.584 -0.36,3.024 -1.296,4.392 -0.576,0.792 -2.304,2.736 -3.456,3.528 -1.368,1.008 -3.456,1.584 -5.184,1.584 l -5.184,0 c -1.512,0 -3.024,-0.864 -4.248,-1.728 l 0,13.32 -7.2,0 0,-43.056 7.2,0 0,21.384 c 0.864,1.08 3.456,3.24 4.392,3.24 l 4.968,0 c 0.216,0 0.36,0 0.432,-0.072 0.792,-0.504 1.8,-1.512 2.304,-2.376 0,0 0.072,-0.144 0.072,-0.36 l 0,-21.816 z m -33.81,24.264 8.928,0 0,6.84 -8.928,0 0,11.952 -7.2,0 0,-11.952 -4.824,0 0,-6.84 4.824,0 0,-14.688 c 0,-1.584 0.432,-3.168 1.368,-4.536 0.576,-0.792 2.304,-2.736 3.456,-3.528 1.44,-1.008 3.384,-1.512 5.184,-1.512 l 6.048,0 0,6.84 -5.976,0 c -1.008,0 -2.376,1.584 -2.808,2.376 -0.072,0.144 -0.072,0.432 -0.072,0.432 l 0,14.616 z m -23.918,-24.264 7.2,0 -0.648,6.336 0,15.696 c 0,1.44 -0.216,3.096 -1.224,4.464 -0.576,0.864 -2.376,2.592 -3.456,3.384 -1.44,1.008 -3.456,1.584 -5.256,1.584 l -6.192,0 c -1.728,0 -3.816,-0.792 -5.184,-1.728 -1.152,-0.792 -3.96,-3.6 -4.68,-5.328 l 6.768,-2.016 c 0.432,0.576 2.016,2.232 2.88,2.232 l 6.336,0 c 0.144,0 0.288,-0.072 0.432,-0.144 0.864,-0.504 1.872,-1.44 2.304,-2.16 0.072,-0.072 0.072,-0.36 0.072,-0.36 l 0,-2.304 -9.936,0 c -1.8,0 -3.744,-0.576 -5.184,-1.584 -1.08,-0.792 -2.808,-2.592 -3.384,-3.384 -0.936,-1.296 -1.296,-2.808 -1.296,-4.392 l 0,-1.296 c 0,-1.584 0.36,-3.096 1.296,-4.392 0.576,-0.792 2.304,-2.592 3.384,-3.384 1.44,-1.008 3.384,-1.584 5.184,-1.584 l 5.904,0 c 1.656,0 3.168,0.864 4.464,1.8 l 0.216,-1.44 z m -0.648,9.36 c -0.576,-0.648 -3.456,-2.88 -4.248,-2.88 l -5.616,0 c -0.144,0 -0.432,0.144 -0.432,0.144 -0.792,0.504 -1.728,1.368 -2.232,2.232 0,0 -0.072,0.144 -0.072,0.216 l 0,1.152 c 0,0.072 0.072,0.216 0.072,0.216 0.504,0.864 1.368,1.8 2.16,2.304 0.072,0.072 0.288,0.144 0.504,0.144 l 9.864,0 0,-3.528 z" /></g></g></g></g></svg>