<?xml version="1.0" encoding="UTF-8" standalone="no"?>
<svg
   xmlns:dc="http://purl.org/dc/elements/1.1/"
   xmlns:cc="http://creativecommons.org/ns#"
   xmlns:rdf="http://www.w3.org/1999/02/22-rdf-syntax-ns#"
   xmlns:svg="http://www.w3.org/2000/svg"
   xmlns="http://www.w3.org/2000/svg"
   viewBox="0 0 658.7551 100.91988"
   height="100.91988"
   width="658.75513"
   xml:space="preserve"
   version="1.1"
   id="svg4171"><metadata
     id="metadata4177"><rdf:RDF><cc:Work
         rdf:about=""><dc:format>image/svg+xml</dc:format><dc:type
           rdf:resource="http://purl.org/dc/dcmitype/StillImage" /><dc:title></dc:title></cc:Work></rdf:RDF></metadata><defs
     id="defs4175"><clipPath
       id="clipPath4185"
       clipPathUnits="userSpaceOnUse"><path
         id="path4187"
         d="m 0,0 841.89,0 0,595.276 L 0,595.276 0,0 Z" /></clipPath></defs><g
     transform="matrix(1.25,0,0,-1.25,-196.80362,422.5075)"
     id="g4179"><g
       id="g4181"><g
         clip-path="url(#clipPath4185)"
         id="g4183"><g
           transform="translate(390.9361,328.5941)"
           id="g4189"><path
             id="path4191"
             style="fill:#568cba;fill-opacity:1;fill-rule:nonzero;stroke:none"
             d="m 0,0 c -0.066,0.058 -0.157,0.08 -0.242,0.061 l -15.89,-3.692 c -0.03,-0.007 -0.058,-0.019 -0.084,-0.035 l -6.951,-4.373 -15.225,1.658 c -0.054,0.004 -0.107,-0.009 -0.154,-0.036 l -4.711,-2.721 -3.762,8.887 c -0.038,0.097 -0.127,0.163 -0.23,0.173 L -61.654,1.219 C -61.731,1.226 -61.805,1.201 -61.861,1.15 L -72.23,-8.117 c -0.053,-0.047 -0.086,-0.113 -0.091,-0.184 l -0.711,-9.74 c -0.006,-0.074 0.019,-0.146 0.068,-0.202 l 6.637,-7.474 6.982,-8.933 -10.749,-4.47 c -0.124,-0.051 -0.193,-0.185 -0.161,-0.316 l 1.607,-6.685 -8.131,-3.389 -2.565,0.612 c -0.074,0.017 -0.151,0.004 -0.214,-0.037 -0.063,-0.041 -0.106,-0.106 -0.119,-0.18 l -1.662,-9.216 c -0.021,-0.116 0.034,-0.231 0.137,-0.288 l 9.32,-5.13 2.184,-7.38 c 0.029,-0.096 0.108,-0.169 0.206,-0.19 0.019,-0.004 0.038,-0.005 0.057,-0.005 0.079,0 0.155,0.034 0.208,0.096 l 10.268,12.037 32.297,16.689 16.621,7.488 c 0.111,0.05 0.175,0.167 0.159,0.287 l -1.036,7.54 10.404,-5.408 -1.588,-4.717 c -0.032,-0.096 -0.009,-0.203 0.062,-0.276 0.07,-0.074 0.175,-0.102 0.273,-0.074 l 9.973,2.88 c 0.107,0.031 0.185,0.124 0.196,0.235 0.091,0.884 2.218,21.676 2.218,23.398 C 10.62,-9.386 1.773,-1.553 0,0" /></g><g
           transform="translate(403.697,306.83)"
           id="g4193"><path
             id="path4195"
             style="fill:#fbc834;fill-opacity:1;fill-rule:nonzero;stroke:none"
             d="m 0,0 0,10.152 c 0,1.44 -0.288,3.024 -1.296,4.392 -0.576,0.864 -2.376,2.664 -3.456,3.456 -1.44,1.008 -3.456,1.584 -5.256,1.584 l -6.624,0 c -1.8,0 -3.816,-0.576 -5.256,-1.584 -1.08,-0.792 -2.88,-2.664 -3.456,-3.456 -0.936,-1.296 -1.368,-2.808 -1.368,-4.392 l 0,-12.96 c 0,-1.584 0.432,-3.168 1.368,-4.464 0.576,-0.792 2.376,-2.664 3.456,-3.456 1.44,-1.008 3.456,-1.512 5.256,-1.512 l 6.768,0 c 1.728,0 3.816,0.72 5.184,1.656 1.152,0.792 3.888,3.6 4.608,5.328 l -6.696,2.016 c 0,0 -0.144,-0.216 -0.216,-0.288 C -7.416,-4.032 -8.928,-5.4 -9.648,-5.4 l -6.984,0 c -0.72,0 -2.16,1.224 -2.808,2.304 0,0 -0.072,0.144 -0.072,0.36 L -19.512,0 0,0 Z m -7.2,6.768 -12.312,0 0,3.24 c 0,0 0,0.288 0.072,0.432 0.648,1.08 2.088,2.304 2.808,2.304 l 6.552,0 c 0.144,0 0.288,0 0.432,-0.072 0.864,-0.504 1.944,-1.512 2.376,-2.232 C -7.2,10.368 -7.2,10.008 -7.2,10.008 l 0,-3.24 z m 38.296,-18.648 0,6.84 -15.12,0 14.4,18.36 0,5.904 -24.624,0 0,-6.84 14.904,0 -14.328,-18.432 0,-5.832 24.768,0 z m 49.52,31.104 -7.56,0 -5.904,-20.088 -5.544,20.088 -7.56,0 -5.688,-20.088 -5.76,20.088 -7.632,0 9.504,-31.104 7.344,0 5.976,19.512 5.832,-19.512 7.344,0 9.648,31.104 z m 12.73,11.592 -7.704,0 0,-7.704 7.704,0 0,7.704 z m -0.216,-11.592 -7.2,0 0,-31.104 7.2,0 0,31.104 z m 16.703,-6.84 8.928,0 0,6.84 -8.928,0 0,11.952 -7.2,0 0,-11.952 -4.824,0 0,-6.84 4.824,0 0,-14.688 c 0,-1.584 0.432,-3.168 1.368,-4.536 0.576,-0.792 2.304,-2.736 3.456,-3.528 1.44,-1.008 3.384,-1.512 5.184,-1.512 l 6.048,0 0,6.84 -5.976,0 c -1.008,0 -2.376,1.584 -2.808,2.376 -0.072,0.144 -0.072,0.432 -0.072,0.432 l 0,14.616 z m 20.937,-15.84 -0.216,0.288 -6.696,-2.016 c 0.72,-1.728 3.456,-4.536 4.608,-5.328 1.368,-0.936 3.456,-1.728 5.184,-1.728 l 7.776,0 c 1.8,0 3.672,0.576 5.112,1.584 1.152,0.792 2.664,2.448 3.24,3.312 0.936,1.296 1.368,2.808 1.368,4.392 l 0,2.016 c 0,4.752 -3.24,6.984 -7.128,7.416 -3.96,0.432 -9.432,0.864 -11.304,1.08 -0.72,0.072 -1.08,0.72 -1.08,0.936 l 0,1.728 c 0,0.576 0.072,0.72 0.072,0.72 0.432,0.792 1.368,1.512 1.656,1.656 0.288,0.144 0.936,0.144 0.936,0.144 l 6.912,0 c 0.72,0 2.232,-1.368 2.664,-1.872 0.144,-0.144 0.216,-0.288 0.216,-0.288 l 6.768,2.016 c -0.72,1.728 -3.528,4.536 -4.68,5.328 -1.368,0.936 -3.456,1.656 -5.184,1.656 l -6.912,0 c -3.6,0 -6.336,-1.944 -8.352,-4.824 -0.936,-1.296 -1.296,-2.808 -1.296,-4.392 l 0,-2.16 c 0,-4.608 2.952,-7.056 6.768,-7.344 4.104,-0.36 9.288,-0.72 11.808,-0.936 0.792,-0.072 0.936,-0.648 0.936,-1.008 l 0,-1.728 c 0,-1.008 -1.728,-2.592 -2.592,-2.592 l -7.92,0 c -0.72,0.072 -2.232,1.44 -2.664,1.944 m 33.357,13.464 c 0,0 0,0.36 0.072,0.504 0.504,0.864 1.512,1.656 2.376,2.16 0.144,0.072 0.288,0.072 0.432,0.072 l 6.768,0 c 0.72,0 2.232,-1.512 2.664,-2.016 0.144,-0.144 0.216,-0.288 0.216,-0.288 l 6.768,2.016 c -0.72,1.728 -3.528,4.536 -4.68,5.328 -1.368,0.936 -3.456,1.8 -5.184,1.8 l -6.624,0 c -1.8,0 -3.816,-0.576 -5.256,-1.584 -1.08,-0.792 -2.88,-2.592 -3.456,-3.456 -1.008,-1.368 -1.296,-2.952 -1.296,-4.392 l 0,-12.96 c 0,-1.44 0.288,-3.024 1.296,-4.392 0.576,-0.864 2.376,-2.736 3.456,-3.528 1.44,-1.008 3.456,-1.512 5.256,-1.512 l 6.912,0 c 1.728,0 3.816,0.72 5.184,1.656 1.152,0.792 3.888,3.6 4.608,5.328 l -6.696,2.016 c -0.144,-0.216 -0.216,-0.288 -0.216,-0.288 -0.432,-0.504 -1.944,-1.872 -2.664,-1.872 l -7.056,0 c -0.144,0 -0.432,0.144 -0.432,0.144 -0.864,0.504 -1.8,1.224 -2.304,2.088 -0.144,0.216 -0.144,0.432 -0.144,0.432 l 0,12.744 z m 44.632,-21.888 7.2,0 0,21.96 c 0,1.584 -0.36,3.024 -1.296,4.392 -0.576,0.792 -2.304,2.736 -3.456,3.528 -1.368,1.008 -3.456,1.584 -5.184,1.584 l -5.184,0 c -1.512,0 -3.024,-0.864 -4.248,-1.728 l 0,13.32 -7.2,0 0,-43.056 7.2,0 0,21.384 c 0.864,1.08 3.456,3.24 4.392,3.24 l 4.968,0 c 0.216,0 0.36,0 0.432,-0.072 0.792,-0.504 1.8,-1.512 2.304,-2.376 0,0 0.072,-0.144 0.072,-0.36 l 0,-21.816 z M 248.97,0 l 0,10.152 c 0,1.44 -0.288,3.024 -1.296,4.392 -0.576,0.864 -2.376,2.664 -3.456,3.456 -1.44,1.008 -3.456,1.584 -5.256,1.584 l -6.624,0 c -1.8,0 -3.816,-0.576 -5.256,-1.584 -1.08,-0.792 -2.88,-2.664 -3.456,-3.456 -0.936,-1.296 -1.368,-2.808 -1.368,-4.392 l 0,-12.96 c 0,-1.584 0.432,-3.168 1.368,-4.464 0.576,-0.792 2.376,-2.664 3.456,-3.456 1.44,-1.008 3.456,-1.512 5.256,-1.512 l 6.768,0 c 1.728,0 3.816,0.72 5.184,1.656 1.152,0.792 3.888,3.6 4.608,5.328 l -6.696,2.016 c 0,0 -0.144,-0.216 -0.216,-0.288 -0.432,-0.504 -1.944,-1.872 -2.664,-1.872 l -6.984,0 c -0.72,0 -2.16,1.224 -2.808,2.304 0,0 -0.072,0.144 -0.072,0.36 l 0,2.736 19.512,0 z m -7.2,6.768 -12.312,0 0,3.24 c 0,0 0,0.288 0.072,0.432 0.648,1.08 2.088,2.304 2.808,2.304 l 6.552,0 c 0.144,0 0.288,0 0.432,-0.072 0.864,-0.504 1.944,-1.512 2.376,-2.232 0.072,-0.072 0.072,-0.432 0.072,-0.432 l 0,-3.24 z m 38.98,5.688 c -0.72,1.728 -3.528,4.536 -4.68,5.328 -1.368,0.936 -3.456,1.8 -5.184,1.8 l -4.32,0 c -1.656,0 -3.312,-1.152 -4.608,-2.088 l -0.288,1.728 -7.056,0 0.576,-6.408 0,-24.696 7.2,0 0,21.528 c 0.864,1.08 2.736,3.096 4.392,3.096 l 4.32,0 c 0.72,0.072 2.232,-1.512 2.664,-2.016 0.144,-0.144 0.216,-0.216 0.216,-0.288 l 6.768,2.016 z" /></g><g
           transform="translate(164.3549,303.374)"
           id="g4197"><path
             id="path4199"
             style="fill:#c60a8d;fill-opacity:1;fill-rule:nonzero;stroke:none"
             d="m 0,0 -0.216,0.288 -6.696,-2.016 c 0.72,-1.728 3.456,-4.536 4.608,-5.328 1.368,-0.936 3.456,-1.728 5.184,-1.728 l 7.776,0 c 1.8,0 3.672,0.576 5.112,1.584 1.152,0.792 2.664,2.448 3.24,3.312 0.936,1.296 1.368,2.808 1.368,4.392 l 0,2.016 c 0,4.752 -3.24,6.984 -7.128,7.416 -3.96,0.432 -9.432,0.864 -11.304,1.08 -0.72,0.072 -1.08,0.72 -1.08,0.936 l 0,1.728 c 0,0.576 0.072,0.72 0.072,0.72 0.432,0.792 1.368,1.512 1.656,1.656 C 2.88,16.2 3.528,16.2 3.528,16.2 l 6.912,0 c 0.72,0 2.232,-1.368 2.664,-1.872 0.144,-0.144 0.216,-0.288 0.216,-0.288 l 6.768,2.016 c -0.72,1.728 -3.528,4.536 -4.68,5.328 -1.368,0.936 -3.456,1.656 -5.184,1.656 l -6.912,0 c -3.6,0 -6.336,-1.944 -8.352,-4.824 -0.936,-1.296 -1.296,-2.808 -1.296,-4.392 l 0,-2.16 C -6.336,7.056 -3.384,4.608 0.432,4.32 4.536,3.96 9.72,3.6 12.24,3.384 13.032,3.312 13.176,2.736 13.176,2.376 l 0,-1.728 c 0,-1.008 -1.728,-2.592 -2.592,-2.592 l -7.92,0 C 1.944,-1.872 0.432,-0.504 0,0 m 35.511,15.84 8.928,0 0,6.84 -8.928,0 0,11.952 -7.2,0 0,-11.952 -4.824,0 0,-6.84 4.824,0 0,-14.688 c 0,-1.584 0.432,-3.168 1.368,-4.536 0.576,-0.792 2.304,-2.736 3.456,-3.528 1.44,-1.008 3.384,-1.512 5.184,-1.512 l 6.048,0 0,6.84 -5.976,0 c -1.008,0 -2.376,1.584 -2.808,2.376 -0.072,0.144 -0.072,0.432 -0.072,0.432 l 0,14.616 z m 39.221,2.964 c -0.968,1.067 -2.015,2.024 -2.614,2.436 -1.368,0.936 -3.456,1.8 -5.184,1.8 l -4.32,0 c -1.656,0 -3.312,-1.152 -4.608,-2.088 l -0.288,1.728 -7.056,0 0.576,-6.408 0,-24.696 7.2,0 0,21.528 c 0.864,1.08 2.736,3.096 4.392,3.096 l 4.32,0 c 0.403,0.04 1.055,-0.439 1.626,-0.957 m 26.217,-4.011 -9.936,0 c -1.799,0 -3.743,-0.576 -5.183,-1.584 C 78.794,8.856 77.066,7.056 76.49,6.264 75.553,4.968 75.194,3.456 75.194,1.872 l 0,-1.296 c 0,-1.584 0.359,-3.096 1.296,-4.392 0.576,-0.792 2.304,-2.592 3.384,-3.384 1.44,-1.008 3.384,-1.584 5.183,-1.584 l 5.905,0 c 1.655,0 3.168,0.864 4.464,1.8 l 0.216,-1.44 7.2,0 -0.648,6.336 0,15.696 c 0,1.44 -0.216,3.096 -1.224,4.464 -0.577,0.864 -2.376,2.592 -3.456,3.384 -1.44,1.008 -3.457,1.584 -5.256,1.584 l -6.192,0 c -1.729,0 -3.816,-0.792 -5.184,-1.728 -1.152,-0.792 -3.96,-3.6 -4.68,-5.328 l 6.768,-2.016 c 0.432,0.576 2.016,2.232 2.88,2.232 l 6.336,0 c 0.143,0 0.288,-0.072 0.431,-0.144 0.865,-0.504 1.873,-1.44 2.305,-2.16 0.071,-0.072 0.071,-0.36 0.071,-0.36 l 0,-2.304 z m 0,-10.296 c -0.575,-0.648 -3.455,-2.88 -4.247,-2.88 l -5.616,0 c -0.144,0 -0.432,0.144 -0.432,0.144 -0.792,0.504 -1.728,1.368 -2.232,2.232 0,0 -0.073,0.144 -0.073,0.216 l 0,1.152 c 0,0.072 0.073,0.216 0.073,0.216 0.504,0.864 1.367,1.8 2.16,2.304 0.072,0.072 0.288,0.144 0.504,0.144 l 9.863,0 0,-3.528 z m 20.963,22.896 c 0,0 0,0.288 0.144,0.504 0.648,1.152 2.592,3.456 3.6,3.456 l 4.104,0 c 0.864,0 2.304,-1.656 2.736,-2.376 0,0 0.072,-0.144 0.072,-0.432 l 0,-2.88 c 0,-0.648 -0.072,-0.72 -0.072,-0.72 -0.648,-1.152 -1.944,-2.232 -2.448,-2.736 -1.656,-1.656 -2.088,-3.168 -2.088,-4.752 l 0,-1.8 c 0,-4.608 2.952,-6.696 6.768,-7.2 1.152,-0.144 2.664,-0.216 4.824,-0.36 0.792,-0.072 1.008,-0.648 1.008,-1.008 l 0,-2.88 c 0,-1.008 -1.8,-2.52 -2.664,-2.52 l -7.488,0 c -0.36,0.072 -0.288,0 -1.224,0.504 0,0 -4.104,-5.76 -4.104,-5.688 1.368,-0.936 3.456,-1.656 5.184,-1.656 l 7.776,0 c 1.8,0.072 3.672,0.504 5.112,1.512 1.152,0.792 2.664,2.448 3.24,3.312 0.936,1.296 1.368,2.808 1.368,4.392 l 0,3.168 c 0,4.752 -3.24,7.056 -7.128,7.416 -1.728,0.144 -2.52,0.144 -4.392,0.36 -0.72,0.072 -1.152,0.72 -1.152,0.936 l 0,1.368 c 0,0.216 0,0.72 0.072,0.936 0.216,0.792 0.432,0.936 1.728,2.232 1.728,1.728 2.88,3.096 2.88,5.04 l 0,3.096 c 0,1.584 -0.432,3.168 -1.368,4.536 -0.576,0.792 -2.304,2.664 -3.456,3.456 -1.44,1.008 -3.312,1.584 -5.112,1.584 l -4.248,0 c -1.584,0 -3.384,-0.648 -4.536,-1.296 -1.584,-0.936 -4.248,-4.032 -5.112,-5.184 -0.936,-1.296 -1.224,-2.88 -1.224,-4.176 l 0,-25.992 -0.648,-6.408 7.272,0 0.576,5.184 0,27.072 z m 56.838,-20.376 0,10.152 c 0,1.44 -0.288,3.024 -1.296,4.392 -0.576,0.864 -2.376,2.664 -3.456,3.456 -1.44,1.008 -3.456,1.584 -5.256,1.584 l -6.624,0 c -1.8,0 -3.816,-0.576 -5.256,-1.584 -1.08,-0.792 -2.88,-2.664 -3.456,-3.456 -0.936,-1.296 -1.368,-2.808 -1.368,-4.392 l 0,-12.96 c 0,-1.584 0.432,-3.168 1.368,-4.464 0.576,-0.792 2.376,-2.664 3.456,-3.456 1.44,-1.008 3.456,-1.512 5.256,-1.512 l 6.768,0 c 1.728,0 3.816,0.72 5.184,1.656 1.152,0.792 3.888,3.6 4.608,5.328 l -6.696,2.016 c 0,0 -0.144,-0.216 -0.216,-0.288 -0.432,-0.504 -1.944,-1.872 -2.664,-1.872 l -6.984,0 c -0.72,0 -2.16,1.224 -2.808,2.304 0,0 -0.072,0.144 -0.072,0.36 l 0,2.736 19.512,0 z m -7.2,6.768 -12.312,0 0,3.24 c 0,0 0,0.288 0.072,0.432 0.648,1.08 2.088,2.304 2.808,2.304 l 6.552,0 c 0.144,0 0.288,0 0.432,-0.072 0.864,-0.504 1.944,-1.512 2.376,-2.232 0.072,-0.072 0.072,-0.432 0.072,-0.432 l 0,-3.24 z" /></g><g
           transform="translate(370.5078,291.6039)"
           id="g4201"><path
             id="path4203"
             style="fill:#fbc834;fill-opacity:1;fill-rule:nonzero;stroke:none"
             d="m 0,0 0,20.222 -7.2,0 0,-7.078 c -0.936,-1.08 -2.664,-2.592 -3.96,-3.24 -0.143,-0.072 -0.504,-0.072 -0.504,-0.072 l -5.255,0 c -0.072,0 -0.288,0 -0.432,0.072 -0.792,0.504 -1.83,1.512 -2.334,2.376 -0.072,0.144 -0.072,0.432 -0.072,0.432 l -0.028,0.944 -7.214,0 0,-1.088 c 0,-1.512 0.288,-3.096 1.296,-4.464 0.576,-0.792 2.304,-2.736 3.456,-3.528 1.44,-1.008 3.528,-1.584 5.256,-1.584 l 5.543,0 c 1.512,0 3.024,0.864 4.248,1.728 l 0,-4.576 0,-0.504 c -0.072,-0.576 -1.728,-1.872 -2.376,-2.232 -0.144,-0.072 -0.288,-0.144 -0.432,-0.144 l -7.283,0 c -0.719,0 -2.231,1.44 -2.663,1.944 -0.144,0.144 -0.216,0.288 -0.216,0.288 l -6.696,-2.016 c 0.72,-1.728 3.456,-4.536 4.608,-5.328 1.368,-0.936 3.456,-1.728 5.183,-1.728 l 7.139,0 c 1.729,0 3.816,0.576 5.256,1.584 C -3.6,-7.2 -1.8,-5.4 -1.224,-4.536 -0.216,-3.168 0,-1.512 0,0 m 0.424,27.726 0.058,0 0,0.075 C 0.465,27.775 0.441,27.752 0.424,27.726" /></g><g
           transform="translate(370.5234,314.3882)"
           id="g4205"><path
             id="path4207"
             style="fill:#c60a8d;fill-opacity:1;fill-rule:nonzero;stroke:none"
             d="m 0,0 0,2.544 c 0,1.44 -0.288,3.024 -1.296,4.392 -0.576,0.864 -2.376,2.664 -3.456,3.456 -1.44,1.008 -3.456,1.584 -5.256,1.584 l -5.773,0 c -1.656,0 -3.24,-1.08 -4.536,-2.016 l -0.288,1.656 -7.128,0 0.72,-6.408 0,-11.728 7.2,0 0,8.704 c 0.936,1.008 2.88,2.952 4.248,2.952 l 5.485,0 c 0.216,0 0.504,0 0.576,-0.072 0.792,-0.504 1.8,-1.44 2.232,-2.232 C -7.2,2.688 -7.2,2.472 -7.2,2.4 L -7.2,0 0,0 Z" /></g></g></g></g></svg>