<?xml version="1.0" encoding="UTF-8" standalone="no"?>
<svg
   xmlns:dc="http://purl.org/dc/elements/1.1/"
   xmlns:cc="http://creativecommons.org/ns#"
   xmlns:rdf="http://www.w3.org/1999/02/22-rdf-syntax-ns#"
   xmlns:svg="http://www.w3.org/2000/svg"
   xmlns="http://www.w3.org/2000/svg"
   viewBox="0 0 503.45675 101.6185"
   height="101.6185"
   width="503.45676"
   xml:space="preserve"
   version="1.1"
   id="svg4155"><metadata
     id="metadata4161"><rdf:RDF><cc:Work
         rdf:about=""><dc:format>image/svg+xml</dc:format><dc:type
           rdf:resource="http://purl.org/dc/dcmitype/StillImage" /><dc:title></dc:title></cc:Work></rdf:RDF></metadata><defs
     id="defs4159"><clipPath
       id="clipPath4169"
       clipPathUnits="userSpaceOnUse"><path
         id="path4171"
         d="m 0,0 566.929,0 0,226.772 L 0,226.772 0,0 Z" /></clipPath></defs><g
     transform="matrix(1.25,0,0,-1.25,-102.6025,192.89112)"
     id="g4163"><g
       id="g4165"><g
         clip-path="url(#clipPath4169)"
         id="g4167"><g
           transform="translate(283.5222,144.3421)"
           id="g4173"><path
             id="path4175"
             style="fill:#568cba;fill-opacity:1;fill-rule:nonzero;stroke:none"
             d="m 0,0 c -0.066,0.058 -0.157,0.08 -0.242,0.061 l -15.89,-3.692 c -0.03,-0.007 -0.058,-0.019 -0.084,-0.035 l -6.951,-4.373 -15.225,1.658 c -0.054,0.004 -0.107,-0.009 -0.154,-0.036 l -4.711,-2.721 -3.762,8.887 c -0.038,0.097 -0.127,0.164 -0.23,0.173 L -61.654,1.219 C -61.731,1.226 -61.805,1.201 -61.861,1.15 L -72.23,-8.117 c -0.053,-0.047 -0.086,-0.113 -0.091,-0.184 l -0.711,-9.74 c -0.006,-0.074 0.019,-0.146 0.068,-0.202 l 6.637,-7.474 6.982,-8.933 -10.749,-4.47 c -0.124,-0.051 -0.193,-0.185 -0.161,-0.316 l 1.607,-6.685 -8.131,-3.389 -2.565,0.612 c -0.074,0.017 -0.151,0.004 -0.214,-0.037 -0.063,-0.041 -0.106,-0.106 -0.119,-0.18 l -1.662,-9.216 c -0.021,-0.116 0.034,-0.231 0.137,-0.288 l 9.32,-5.13 2.184,-7.38 c 0.029,-0.096 0.108,-0.169 0.206,-0.19 0.019,-0.004 0.038,-0.005 0.057,-0.005 0.079,0 0.155,0.034 0.208,0.096 l 10.268,12.037 32.297,16.689 16.621,7.488 c 0.111,0.05 0.175,0.167 0.159,0.287 l -1.036,7.54 10.404,-5.408 -1.588,-4.717 c -0.032,-0.096 -0.009,-0.203 0.062,-0.276 0.07,-0.074 0.175,-0.102 0.273,-0.074 l 9.973,2.88 c 0.107,0.031 0.185,0.124 0.196,0.235 0.091,0.884 2.218,21.676 2.218,23.398 C 10.62,-9.386 1.773,-1.553 0,0" /></g><g
           transform="translate(88.985,119.1177)"
           id="g4177"><path
             id="path4179"
             style="fill:#c60a8d;fill-opacity:1;fill-rule:nonzero;stroke:none"
             d="m 0,0 -0.216,0.288 -6.687,-2.017 c 0.72,-1.725 3.452,-4.529 4.602,-5.32 1.366,-0.935 3.452,-1.725 5.181,-1.725 l 7.78,0 c 1.801,0 3.672,0.575 5.11,1.581 1.15,0.791 2.66,2.445 3.235,3.307 0.935,1.294 1.366,2.806 1.366,4.39 l 0,2.017 c 0,4.753 -3.235,6.986 -7.117,7.418 -3.963,0.432 -9.438,0.865 -11.311,1.081 -0.72,0.072 -1.08,0.72 -1.08,0.936 l 0,1.728 c 0,0.577 0.072,0.721 0.072,0.721 0.432,0.792 1.369,1.512 1.657,1.656 0.288,0.144 0.936,0.144 0.936,0.144 l 6.916,0 c 0.721,0 2.233,-1.368 2.666,-1.872 0.144,-0.144 0.215,-0.288 0.215,-0.288 l 6.759,2.016 c -0.719,1.726 -3.523,4.53 -4.674,5.32 -1.366,0.935 -3.453,1.654 -5.182,1.654 l -6.916,0 c -3.6,0 -6.332,-1.941 -8.345,-4.817 -0.934,-1.294 -1.294,-2.805 -1.294,-4.389 l 0,-2.161 c 0,-4.61 2.948,-7.058 6.758,-7.347 4.106,-0.36 9.293,-0.72 11.814,-0.936 0.793,-0.072 0.937,-0.648 0.937,-1.008 l 0,-1.729 c 0,-1.008 -1.729,-2.593 -2.594,-2.593 l -7.924,0 C 1.943,-1.873 0.431,-0.504 0,0 m 36.036,15.845 8.926,0 0,6.83 -8.926,0 0,11.95 -7.19,0 0,-11.95 -4.823,0 0,-6.83 4.823,0 0,-14.693 c 0,-1.584 0.431,-3.168 1.366,-4.534 0.575,-0.791 2.301,-2.732 3.451,-3.523 1.438,-1.006 3.381,-1.509 5.18,-1.509 l 6.047,0 0,6.829 -5.975,0 c -1.008,0 -2.375,1.585 -2.807,2.377 -0.072,0.144 -0.072,0.432 -0.072,0.432 l 0,14.621 z m 67.048,-12.382 0,10.147 c 0,1.442 -0.287,3.027 -1.294,4.392 -0.575,0.863 -2.372,2.661 -3.451,3.451 -1.438,1.007 -3.453,1.582 -5.254,1.582 l -6.627,0 c -1.801,0 -3.817,-0.575 -5.255,-1.582 -1.078,-0.79 -2.876,-2.66 -3.451,-3.451 -0.934,-1.294 -1.366,-2.806 -1.366,-4.392 l 0,-12.959 c 0,-1.586 0.432,-3.171 1.366,-4.465 0.575,-0.791 2.373,-2.66 3.451,-3.451 1.438,-1.006 3.454,-1.509 5.255,-1.509 l 6.771,0 c 1.729,0 3.816,0.719 5.182,1.653 1.151,0.791 3.883,3.595 4.602,5.321 l -6.687,2.019 c 0,0 -0.144,-0.217 -0.216,-0.289 -0.431,-0.505 -1.944,-1.875 -2.665,-1.875 l -6.987,0 c -0.721,0 -2.162,1.226 -2.81,2.308 0,0 -0.072,0.144 -0.072,0.36 l 0,2.74 19.508,0 z m -7.189,6.758 -12.319,0 0,3.245 c 0,0 0,0.288 0.072,0.432 0.648,1.082 2.089,2.307 2.81,2.307 l 6.555,0 c 0.144,0 0.288,0 0.432,-0.072 0.865,-0.505 1.946,-1.514 2.378,-2.235 0.072,-0.072 0.072,-0.432 0.072,-0.432 l 0,-3.245 z m 41.116,-6.758 0,10.147 c 0,1.442 -0.287,3.027 -1.294,4.392 -0.575,0.863 -2.372,2.661 -3.451,3.451 -1.438,1.007 -3.453,1.582 -5.254,1.582 l -6.628,0 c -1.801,0 -3.816,-0.575 -5.254,-1.582 -1.078,-0.79 -2.876,-2.66 -3.451,-3.451 -0.934,-1.294 -1.366,-2.806 -1.366,-4.392 l 0,-12.959 c 0,-1.586 0.432,-3.171 1.366,-4.465 0.575,-0.791 2.373,-2.66 3.451,-3.451 1.438,-1.006 3.453,-1.509 5.254,-1.509 l 6.772,0 c 1.729,0 3.816,0.719 5.182,1.653 1.15,0.791 3.883,3.595 4.602,5.321 l -6.687,2.019 c 0,0 -0.144,-0.217 -0.216,-0.289 -0.431,-0.505 -1.944,-1.875 -2.665,-1.875 l -6.988,0 c -0.72,0 -2.161,1.226 -2.809,2.308 0,0 -0.072,0.144 -0.072,0.36 l 0,2.74 19.508,0 z m -7.189,6.758 -12.319,0 0,3.245 c 0,0 0,0.288 0.072,0.432 0.648,1.082 2.089,2.307 2.809,2.307 l 6.556,0 c 0.144,0 0.288,0 0.432,-0.072 0.865,-0.505 1.945,-1.514 2.378,-2.235 0.072,-0.072 0.072,-0.432 0.072,-0.432 l 0,-3.245 z" /></g><g
           transform="translate(163.9184,138.4056)"
           id="g4181"><path
             id="path4183"
             style="fill:#c60a8d;fill-opacity:1;fill-rule:nonzero;stroke:none"
             d="m 0,0 c -0.829,0.864 -1.656,1.602 -2.163,1.95 -1.368,0.934 -3.456,1.797 -5.183,1.797 l -4.32,0 c -1.655,0 -3.311,-1.15 -4.606,-2.085 l -0.288,1.726 -7.046,0 0.575,-6.399 0,-24.691 7.19,0 0,21.523 c 0.864,1.08 2.736,3.096 4.391,3.096 l 4.32,0 c 0.331,0.033 0.83,-0.284 1.314,-0.685" /></g><g
           transform="translate(295.0594,119.766)"
           id="g4185"><path
             id="path4187"
             style="fill:#fbc834;fill-opacity:1;fill-rule:nonzero;stroke:none"
             d="m 0,0 0,12.964 c 0,1.441 -0.216,3.024 -1.222,4.39 -0.575,0.863 -2.373,2.66 -3.451,3.451 -1.438,1.007 -3.453,1.582 -5.254,1.582 l -6.772,0 c -1.801,0 -3.744,-0.575 -5.182,-1.582 -1.079,-0.791 -2.948,-2.588 -3.523,-3.451 -1.007,-1.366 -1.222,-2.949 -1.222,-4.39 l 0,-12.964 c 0,-1.44 0.215,-3.024 1.222,-4.39 0.575,-0.863 2.444,-2.732 3.523,-3.523 1.438,-1.006 3.381,-1.51 5.182,-1.51 l 6.772,0 c 1.801,0 3.816,0.504 5.254,1.51 1.078,0.791 2.876,2.66 3.451,3.523 C -0.216,-3.024 0,-1.44 0,0 m -19.437,12.748 c 0,0 0,0.288 0.072,0.432 0.505,0.865 1.513,1.801 2.378,2.305 0.144,0.072 0.216,0.072 0.36,0.072 l 6.628,0 c 0.144,0 0.216,0 0.36,-0.072 0.864,-0.504 1.945,-1.584 2.377,-2.305 0.072,-0.216 0.072,-0.36 0.072,-0.432 l 0,-13.108 c -0.072,-0.576 -1.729,-1.729 -2.377,-2.089 -0.144,-0.072 -0.288,-0.144 -0.432,-0.144 l -6.628,0 c -0.288,0 -0.432,0.072 -0.432,0.072 -0.865,0.504 -2.378,1.585 -2.378,2.161 l 0,13.108 z m 51.275,9.279 -7.631,0 -6.911,-20.946 -6.911,20.946 -7.702,0 10.87,-31.09 7.631,0 10.654,31.09 z m 30.849,-19.212 0,10.147 c 0,1.441 -0.287,3.026 -1.294,4.392 -0.575,0.863 -2.372,2.66 -3.451,3.451 -1.438,1.007 -3.453,1.582 -5.254,1.582 l -6.628,0 c -1.801,0 -3.816,-0.575 -5.254,-1.582 -1.078,-0.791 -2.876,-2.66 -3.451,-3.451 -0.935,-1.294 -1.366,-2.806 -1.366,-4.392 l 0,-12.959 c 0,-1.586 0.431,-3.171 1.366,-4.465 0.575,-0.791 2.373,-2.66 3.451,-3.451 1.438,-1.006 3.453,-1.51 5.254,-1.51 l 6.772,0 c 1.729,0 3.816,0.719 5.182,1.654 1.15,0.791 3.882,3.595 4.601,5.32 l -6.686,2.019 c 0,0 -0.144,-0.216 -0.216,-0.288 -0.432,-0.505 -1.944,-1.875 -2.665,-1.875 l -6.988,0 c -0.72,0 -2.161,1.226 -2.809,2.308 0,0 -0.072,0.144 -0.072,0.36 l 0,2.74 19.508,0 z m -7.189,6.758 -12.319,0 0,3.244 c 0,0 0,0.289 0.072,0.433 0.648,1.081 2.089,2.307 2.809,2.307 l 6.556,0 c 0.144,0 0.288,0 0.432,-0.072 0.865,-0.505 1.945,-1.514 2.378,-2.235 0.072,-0.072 0.072,-0.433 0.072,-0.433 l 0,-3.244 z m 37.381,9.009 c -0.847,0.889 -1.7,1.652 -2.218,2.007 -1.368,0.935 -3.455,1.798 -5.183,1.798 l -4.319,0 c -1.656,0 -3.312,-1.151 -4.607,-2.085 l -0.288,1.725 -7.046,0 0.576,-6.398 0,-24.692 7.189,0 0,21.523 c 0.864,1.08 2.736,3.097 4.392,3.097 l 4.319,0 c 0.317,0.032 0.787,-0.257 1.251,-0.634 m 26.675,-4.342 -9.942,0 c -1.8,0 -3.743,-0.575 -5.181,-1.582 C 97.418,8.208 95.693,6.411 95.117,5.62 94.183,4.326 93.823,2.814 93.823,1.228 l 0,-1.298 c 0,-1.586 0.36,-3.098 1.294,-4.392 0.576,-0.791 2.301,-2.588 3.38,-3.379 1.438,-1.007 3.381,-1.582 5.181,-1.582 l 5.908,0 c 1.657,0 3.169,0.863 4.465,1.798 l 0.216,-1.438 7.19,0 -0.647,6.326 0,15.698 c 0,1.442 -0.216,3.099 -1.223,4.465 -0.575,0.863 -2.372,2.588 -3.451,3.379 -1.438,1.007 -3.453,1.582 -5.254,1.582 l -6.195,0 c -1.729,0 -3.818,-0.791 -5.184,-1.726 -1.15,-0.79 -3.954,-3.594 -4.673,-5.32 l 6.759,-2.02 c 0.433,0.577 2.017,2.236 2.882,2.236 l 6.339,0 c 0.144,0 0.289,-0.072 0.433,-0.144 0.864,-0.505 1.873,-1.443 2.305,-2.164 0.072,-0.072 0.072,-0.36 0.072,-0.36 l 0,-2.308 z m 0,-10.29 c -0.576,-0.649 -3.458,-2.884 -4.25,-2.884 l -5.619,0 c -0.145,0 -0.433,0.144 -0.433,0.144 -0.792,0.505 -1.729,1.37 -2.233,2.235 0,0 -0.072,0.144 -0.072,0.216 l 0,1.154 c 0,0.072 0.072,0.216 0.072,0.216 0.504,0.865 1.369,1.802 2.161,2.307 0.072,0.072 0.288,0.144 0.505,0.144 l 9.869,0 0,-3.532 z m 42.507,21.736 -7.119,0 -0.216,-1.581 c -1.295,1.006 -3.024,1.941 -4.753,1.941 l -5.547,0 c -1.729,0 -3.816,-0.575 -5.254,-1.582 -1.151,-0.791 -2.876,-2.732 -3.451,-3.523 -1.007,-1.366 -1.295,-2.949 -1.295,-4.462 l 0,-12.604 c 0,-1.512 0.288,-3.096 1.295,-4.462 0.575,-0.791 2.3,-2.732 3.451,-3.523 1.438,-1.007 3.525,-1.582 5.254,-1.582 l 5.547,0 c 1.513,0 3.025,0.863 4.25,1.726 l 0,-3.889 0,-0.505 c -0.072,-0.577 -1.729,-1.875 -2.377,-2.236 -0.144,-0.072 -0.288,-0.144 -0.433,-0.144 l -6.483,0 c -0.72,0 -2.233,1.443 -2.665,1.947 -0.145,0.145 -0.217,0.289 -0.217,0.289 l -6.687,-2.019 c 0.719,-1.727 3.451,-4.53 4.602,-5.321 1.366,-0.935 4.152,-1.726 5.881,-1.726 l 6.34,0 c 1.729,0 3.117,0.576 4.555,1.582 1.079,0.791 2.876,2.588 3.451,3.451 1.007,1.366 1.223,3.023 1.223,4.538 l 0,27.215 0.648,6.47 z M 138.564,-2.521 c -0.072,0 -0.288,0 -0.432,0.072 -0.793,0.504 -1.874,1.513 -2.378,2.377 -0.072,0.144 -0.072,0.432 -0.072,0.432 l 0,12.316 c 0,0 0,0.216 0.072,0.36 0.504,0.865 1.585,1.873 2.378,2.377 0.144,0.072 0.288,0.144 0.432,0.144 l 5.259,0 c 1.08,0 3.457,-2.305 4.466,-3.385 l 0,-11.38 c -0.936,-1.08 -2.665,-2.593 -3.962,-3.241 -0.144,-0.072 -0.504,-0.072 -0.504,-0.072 l -5.259,0 z m 51.224,5.336 0,10.147 c 0,1.441 -0.288,3.026 -1.295,4.392 -0.575,0.863 -2.372,2.66 -3.451,3.451 -1.438,1.007 -3.453,1.582 -5.254,1.582 l -6.627,0 c -1.801,0 -3.817,-0.575 -5.255,-1.582 -1.078,-0.791 -2.875,-2.66 -3.451,-3.451 -0.934,-1.294 -1.366,-2.806 -1.366,-4.392 l 0,-12.959 c 0,-1.586 0.432,-3.171 1.366,-4.465 0.576,-0.791 2.373,-2.66 3.451,-3.451 1.438,-1.006 3.454,-1.51 5.255,-1.51 l 6.771,0 c 1.729,0 3.816,0.719 5.182,1.654 1.151,0.791 3.883,3.595 4.602,5.32 l -6.687,2.019 c 0,0 -0.144,-0.216 -0.215,-0.288 -0.432,-0.505 -1.945,-1.875 -2.666,-1.875 l -6.987,0 c -0.721,0 -2.162,1.226 -2.81,2.308 0,0 -0.072,0.144 -0.072,0.36 l 0,2.74 19.509,0 z m -7.19,6.758 -12.319,0 0,3.244 c 0,0 0,0.289 0.072,0.433 0.648,1.081 2.089,2.307 2.81,2.307 l 6.555,0 c 0.144,0 0.288,0 0.432,-0.072 0.865,-0.505 1.946,-1.514 2.378,-2.235 0.072,-0.072 0.072,-0.433 0.072,-0.433 l 0,-3.244 z" /></g><g
           transform="translate(255.9059,133.2568)"
           id="g4189"><path
             id="path4191"
             style="fill:#fbc834;fill-opacity:1;fill-rule:nonzero;stroke:none"
             d="M 0,0 6.767,1.989 C 6.047,3.715 3.239,6.518 2.087,7.309 0.72,8.244 -1.368,9.107 -3.096,9.107 l -0.513,0 -0.19,-0.617 -1.881,-6.185 2.8,0 c 0.72,0 2.232,-1.513 2.664,-2.017 C -0.072,0.144 0,0 0,0 m -13.162,-22.292 c 1.106,-0.399 2.311,-0.621 3.444,-0.621 l 6.91,0 c 1.728,0 3.816,0.719 5.183,1.653 1.152,0.791 3.888,3.595 4.608,5.32 l -6.695,2.017 c -0.144,-0.216 -0.216,-0.288 -0.216,-0.288 -0.432,-0.504 -1.944,-1.873 -2.664,-1.873 l -7.055,0 c -0.143,0 -0.431,0.144 -0.431,0.144 -0.319,0.186 -0.641,0.41 -0.954,0.651 l -2.13,-7.003 z" /></g><g
           transform="translate(247.6365,135.5489)"
           id="g4193"><path
             id="path4195"
             style="fill:#c60a8d;fill-opacity:1;fill-rule:nonzero;stroke:none"
             d="m 0,0 2.078,6.814 -6.344,0 0,11.95 -7.19,0 0,-11.95 -4.823,0 0,-6.83 4.823,0 0,-15.579 0.01,0 0,-0.188 c 0,-1.44 0.287,-3.024 1.294,-4.39 0.511,-0.766 1.983,-2.322 3.062,-3.216 L -4.264,-14.15 -4.249,0 0,0 Z" /></g></g></g></g></svg>